<svg xmlns="http://www.w3.org/2000/svg" width="244" height="246">
    <path fill="#FCAC45" fill-rule="evenodd" d="M122.248 124.486c-34.373 0-62.238-27.865-62.238-62.238C60.01 27.875 87.875.009 122.248.009c34.373 0 62.239 27.866 62.239 62.239s-27.866 62.238-62.239 62.238zm0-118.82c-31.25 0-56.581 25.333-56.581 56.582 0 31.249 25.331 56.582 56.581 56.582 31.251 0 56.58-25.333 56.58-56.582 0-31.249-25.329-56.582-56.58-56.582z"/>
    <path fill-rule="evenodd" d="M110.966 65.945c0 6.329 5.13 11.459 11.459 11.459s11.46-5.13 11.46-11.459-5.131-11.46-11.46-11.46c-6.329 0-11.459 5.131-11.459 11.46zm36.141-19.393h-12.341c-.881-3.526-1.763-7.052-5.289-7.052h-14.104c-3.526 0-4.407 3.526-5.289 7.052H97.743c-1.939 0-3.526 1.586-3.526 3.526v31.734c0 1.939 1.587 3.526 3.526 3.526h49.364c1.94 0 3.526-1.587 3.526-3.526V50.078c0-1.94-1.586-3.526-3.526-3.526zm-24.682 35.039c-8.641 0-15.647-7.004-15.647-15.646 0-8.642 7.006-15.647 15.647-15.647 8.642 0 15.647 7.005 15.647 15.647s-7.005 15.646-15.647 15.646zm24.682-24.461h-7.052v-3.526h7.052v3.526z"/>
    <text x="30" y="-2854.175" fill="#222" font-family="OpenSans" font-size="25">
        PHOTOGRAPHY
    </text>
    <text y="-2819.778" fill="#222" font-family="OpenSans" font-size="14">
        The first line of Lorem Ipsum, &quot;Lorem ipsum dolor sit amet..&quot;, comes from a line in section 1.10.32.
    </text>
</svg>
