<svg xmlns="http://www.w3.org/2000/svg" width="244" height="246">
    <path fill="#FCAC45" fill-rule="evenodd" d="M122.248 124.486c-34.373 0-62.238-27.865-62.238-62.238C60.01 27.875 87.875.009 122.248.009c34.373 0 62.239 27.866 62.239 62.239s-27.866 62.238-62.239 62.238zm0-118.82c-31.25 0-56.581 25.333-56.581 56.582 0 31.249 25.331 56.582 56.581 56.582 31.251 0 56.58-25.333 56.58-56.582 0-31.249-25.329-56.582-56.58-56.582z"/>
    <path fill="#222" fill-rule="evenodd" d="M134.312 88.125h-3.375c-1.862 0-3.375-1.513-3.375-3.375v-5.063h-10.125v5.063c0 1.862-1.512 3.375-3.375 3.375h-3.375c-.933 0-1.687.756-1.687 1.687 0 .933.754 1.688 1.687 1.688h23.625c.933 0 1.688-.755 1.688-1.688 0-.931-.755-1.687-1.688-1.687zm12.235-50.626H98.453c-1.63 0-2.953 1.418-2.953 3.165v32.484c0 1.747 1.323 3.164 2.953 3.164h48.094c1.63 0 2.953-1.417 2.953-3.164V40.664c0-1.747-1.323-3.165-2.953-3.165zm-.422 35.438h-47.25V40.875h47.25v32.062z"/>
    <text x="46" y="-2873.169" fill="#222" font-family="OpenSans" font-size="25">
        <tspan dy="-1.92em">WEB DESIGN</tspan><tspan x="46" dy=".96em"> </tspan><tspan x="46" dy=".96em"> </tspan>
    </text>
    <text y="-2819.778" fill="#222" font-family="OpenSans" font-size="14">
        The first line of Lorem Ipsum, &quot;Lorem ipsum dolor sit amet..&quot;, comes from a line in section 1.10.32.
    </text>
</svg>
